<?xml version="1.0" encoding="utf-8"?>
<!-- Generator: Adobe Illustrator 21.1.0, SVG Export Plug-In . SVG Version: 6.00 Build 0)  -->
<svg version="1.1" id="Capa_1" xmlns="http://www.w3.org/2000/svg" xmlns:xlink="http://www.w3.org/1999/xlink" x="0px" y="0px"
	 viewBox="0 0 512 512" style="enable-background:new 0 0 512 512;" xml:space="preserve">
<style type="text/css">
	.st0{fill:#7800FF;}
</style>
<g>
	<path class="st0" d="M497,181h-52.8L328.7,36.6c-5.2-6.5-14.6-7.5-21.1-2.3c-6.5,5.2-7.5,14.6-2.3,21.1L405.8,181H106.2L206.7,55.4
		c5.2-6.5,4.1-15.9-2.3-21.1c-6.5-5.2-15.9-4.1-21.1,2.3L67.8,181H15c-8.3,0-15,6.7-15,15v30c0,8.3,6.7,15,15,15h482
		c8.3,0,15-6.7,15-15v-30C512,187.7,505.3,181,497,181L497,181z"/>
	<path class="st0" d="M90.6,470.1c1.8,6.4,7.7,10.9,14.4,10.9h302c6.7,0,12.6-4.4,14.4-10.9L478.3,271H33.7L90.6,470.1z
		 M324.7,403.5l15-90c1.4-8.2,9.1-13.7,17.3-12.3c8.2,1.4,13.7,9.1,12.3,17.3l-15,90c-1.2,7.3-7.6,12.5-14.8,12.5
		c-0.8,0-1.6-0.1-2.5-0.2C328.9,419.4,323.3,411.7,324.7,403.5z M241,316c0-8.3,6.7-15,15-15s15,6.7,15,15v90c0,8.3-6.7,15-15,15
		s-15-6.7-15-15V316z M156,301.2c8.2-1.4,15.9,4.2,17.3,12.3l15,90c1.4,8.2-4.2,15.9-12.3,17.3c-0.8,0.1-1.7,0.2-2.5,0.2
		c-7.2,0-13.6-5.2-14.8-12.5l-15-90C142.3,310.3,147.9,302.6,156,301.2z"/>
</g>
</svg>
